<?xml version="1.0" encoding="utf-8"?>
<!-- Generator: Adobe Illustrator 16.0.4, SVG Export Plug-In . SVG Version: 6.00 Build 0)  -->
<!DOCTYPE svg PUBLIC "-//W3C//DTD SVG 1.1//EN" "http://www.w3.org/Graphics/SVG/1.1/DTD/svg11.dtd">
<svg version="1.1" id="Layer_1" xmlns="http://www.w3.org/2000/svg" xmlns:xlink="http://www.w3.org/1999/xlink" x="0px" y="0px" viewBox="0 0 120 120" enable-background="new 0 0 120 120" xml:space="preserve">
<g>
	<path fill="#FFFFFF" d="M49.758,54.657h16.021c-0.429-0.531-0.687-1.205-0.687-1.938c0-0.666,0.213-1.281,0.572-1.786
		c-0.088-0.017-0.179-0.028-0.271-0.028H41.406c-0.776,0-1.406,0.63-1.406,1.408v16.798l9.168-14.134
		C49.298,54.777,49.52,54.657,49.758,54.657z"/>
	<path fill="#FFFFFF" d="M79.108,56.671h-2.774v0.91c0,1.736-1.413,3.15-3.149,3.15c-1.738,0-3.151-1.414-3.151-3.15v-0.91H51.251
		c-0.239,0-0.461,0.121-0.591,0.32L40.322,72.931c-0.305,0.467,0.031,1.086,0.59,1.086H68.77c0.237,0,0.461-0.121,0.59-0.32
		l10.339-15.939C80.002,57.288,79.666,56.671,79.108,56.671z"/>
	<path fill="#FFFFFF" d="M68.192,54.542h3.116v3.039c0,1.03,0.846,1.875,1.876,1.875s1.876-0.845,1.876-1.875v-3.039h3.115
		c1.005,0,1.824-0.817,1.824-1.822c0-1.005-0.819-1.822-1.824-1.822h-3.115v-3.039c0-1.031-0.846-1.875-1.876-1.875
		s-1.876,0.844-1.876,1.875v3.039h-3.116c-1.005,0-1.824,0.817-1.824,1.822C66.368,53.724,67.188,54.542,68.192,54.542z"/>
</g>
</svg>
