<?xml version="1.0" encoding="utf-8"?>
<!-- Generator: Adobe Illustrator 16.0.4, SVG Export Plug-In . SVG Version: 6.00 Build 0)  -->
<!DOCTYPE svg PUBLIC "-//W3C//DTD SVG 1.1//EN" "http://www.w3.org/Graphics/SVG/1.1/DTD/svg11.dtd">
<svg version="1.1" id="Layer_1" xmlns="http://www.w3.org/2000/svg" xmlns:xlink="http://www.w3.org/1999/xlink" x="0px" y="0px" viewBox="0 0 120 120" enable-background="new 0 0 120 120" xml:space="preserve">
<path fill="#FFFFFF" d="M79.812,75.433L70.504,59.31l-9.309-16.124c-0.531-0.92-1.859-0.92-2.391,0L49.494,59.31l-9.307,16.123
	c-0.533,0.921,0.133,2.071,1.195,2.071H60h18.617C79.68,77.504,80.344,76.354,79.812,75.433z M59.846,55.96
	c1.16,0,1.828,0.632,1.828,1.776c0,1.144-0.668,1.81-1.828,1.81c-1.145,0-1.811-0.666-1.811-1.81
	C58.035,56.592,58.701,55.96,59.846,55.96z M62.664,69.552h-5.193V67.93l0.719-0.102c0.238-0.035,0.273-0.086,0.273-0.342v-4.56
	c0-0.188-0.053-0.307-0.223-0.358l-0.887-0.324l0.221-1.656h4.082v6.898c0,0.273,0.018,0.307,0.273,0.342l0.734,0.119V69.552z"/>
</svg>
