<?xml version="1.0" encoding="utf-8"?>
<!-- Generator: Adobe Illustrator 16.0.4, SVG Export Plug-In . SVG Version: 6.00 Build 0)  -->
<!DOCTYPE svg PUBLIC "-//W3C//DTD SVG 1.1//EN" "http://www.w3.org/Graphics/SVG/1.1/DTD/svg11.dtd">
<svg version="1.1" id="Layer_1" xmlns="http://www.w3.org/2000/svg" xmlns:xlink="http://www.w3.org/1999/xlink" x="0px" y="0px" viewBox="0 0 120 120" enable-background="new 0 0 120 120" xml:space="preserve">
<g>
	<path fill="#FFFFFF" d="M78.586,58.5h-16.5c-0.553,0-1-0.447-1-1V41c0-0.553,0.447-1,1-1h16.5c0.552,0,1,0.447,1,1v16.5
		C79.586,58.053,79.138,58.5,78.586,58.5z"/>
	<path fill="#FFFFFF" d="M57.914,58.5h-16.5c-0.552,0-1-0.447-1-1V41c0-0.553,0.448-1,1-1h16.5c0.553,0,1,0.447,1,1v16.5
		C58.914,58.053,58.467,58.5,57.914,58.5z"/>
	<path fill="#FFFFFF" d="M57.914,80h-16.5c-0.552,0-1-0.447-1-1V62.5c0-0.553,0.448-1,1-1h16.5c0.553,0,1,0.447,1,1V79
		C58.914,79.553,58.467,80,57.914,80z"/>
	<path fill="#FFFFFF" d="M78.586,80h-16.5c-0.553,0-1-0.447-1-1V62.5c0-0.553,0.447-1,1-1h16.5c0.552,0,1,0.447,1,1V79
		C79.586,79.553,79.138,80,78.586,80z"/>
</g>
</svg>
