<?xml version="1.0" encoding="utf-8"?>
<!-- Generator: Adobe Illustrator 16.0.4, SVG Export Plug-In . SVG Version: 6.00 Build 0)  -->
<!DOCTYPE svg PUBLIC "-//W3C//DTD SVG 1.1//EN" "http://www.w3.org/Graphics/SVG/1.1/DTD/svg11.dtd">
<svg version="1.1" id="Layer_1" xmlns="http://www.w3.org/2000/svg" xmlns:xlink="http://www.w3.org/1999/xlink" x="0px" y="0px" viewBox="0 0 120 120" enable-background="new 0 0 120 120" xml:space="preserve">
<path fill="#FFFFFF" d="M79.961,52.204c-0.428-5.355-4.557-9.833-9.861-10.677c-3.807-0.604-7.354,0.633-9.893,2.962
	c-2.416-2.445-5.891-3.854-9.715-3.444c-5.293,0.569-9.619,4.764-10.369,10.036c-0.469,3.278,0.436,6.349,2.211,8.739h-0.01
	l0.072,0.084c0.27,0.358,0.555,0.705,0.863,1.03l14.572,17.35c0.799,0.953,2.254,0.991,3.102,0.078l16.172-17.431l0,0
	C79.1,58.638,80.229,55.562,79.961,52.204z"/>
</svg>
