<?xml version="1.0" encoding="utf-8"?>
<!-- Generator: Adobe Illustrator 16.0.4, SVG Export Plug-In . SVG Version: 6.00 Build 0)  -->
<!DOCTYPE svg PUBLIC "-//W3C//DTD SVG 1.1//EN" "http://www.w3.org/Graphics/SVG/1.1/DTD/svg11.dtd">
<svg version="1.1" id="Layer_1" xmlns="http://www.w3.org/2000/svg" xmlns:xlink="http://www.w3.org/1999/xlink" x="0px" y="0px" viewBox="0 0 120 120" enable-background="new 0 0 120 120" xml:space="preserve">
<g>
	<path fill="#FFFFFF" d="M60.002,80C71.028,80,80,71.028,80,60s-8.972-20-19.998-20C48.972,40,40,48.972,40,60S48.972,80,60.002,80z
		 M60.002,42.596c9.595,0,17.402,7.809,17.402,17.404s-7.808,17.404-17.402,17.404c-9.599,0-17.406-7.809-17.406-17.404
		S50.403,42.596,60.002,42.596z"/>
	<path fill="#FFFFFF" d="M51.229,61.124l14.167,8.18c0.621,0.358,1.414,0.146,1.773-0.475c0.358-0.622,0.146-1.414-0.475-1.773
		l-12.222-7.055l12.222-7.057c0.62-0.359,0.833-1.153,0.475-1.773c-0.24-0.415-0.676-0.648-1.125-0.648
		c-0.22,0-0.443,0.056-0.648,0.174l-14.167,8.18c-0.401,0.231-0.648,0.661-0.648,1.125C50.581,60.464,50.828,60.893,51.229,61.124z"
		/>
</g>
</svg>
