<?xml version="1.0" encoding="utf-8"?>
<!-- Generator: Adobe Illustrator 16.0.4, SVG Export Plug-In . SVG Version: 6.00 Build 0)  -->
<!DOCTYPE svg PUBLIC "-//W3C//DTD SVG 1.1//EN" "http://www.w3.org/Graphics/SVG/1.1/DTD/svg11.dtd">
<svg version="1.1" id="Layer_1" xmlns="http://www.w3.org/2000/svg" xmlns:xlink="http://www.w3.org/1999/xlink" x="0px" y="0px" viewBox="0 0 120 120" enable-background="new 0 0 120 120" xml:space="preserve">
<g>
	<path fill="#FFFFFF" d="M60,40c-11.028,0-20,8.972-20,20s8.972,20,20,20s20-8.972,20-20S71.028,40,60,40z M60,77.404
		c-9.597,0-17.404-7.809-17.404-17.404S50.403,42.596,60,42.596S77.404,50.404,77.404,60S69.597,77.404,60,77.404z"/>
	<path fill="#FFFFFF" d="M66.394,61.83h-8.045h-4.463c-0.972,0-1.761-0.777-1.761-1.732s0.789-1.731,1.761-1.731h12.508
		c0.955,0,1.731,0.776,1.731,1.731S67.349,61.83,66.394,61.83z"/>
</g>
</svg>
