<?xml version="1.0" encoding="UTF-8" standalone="no"?>
<svg width="24px" height="30px" viewBox="0 0 24 30" version="1.1" xmlns="http://www.w3.org/2000/svg" xmlns:xlink="http://www.w3.org/1999/xlink" xmlns:sketch="http://www.bohemiancoding.com/sketch/ns">
    <!-- Generator: Sketch 3.4.4 (17249) - http://www.bohemiancoding.com/sketch -->
    <title>plus1</title>
    <desc>Created with Sketch.</desc>
    <defs></defs>
    <g id="Page-1" stroke="none" stroke-width="1" fill="none" fill-rule="evenodd" sketch:type="MSPage">
        <g id="plus1" sketch:type="MSLayerGroup" transform="translate(0.000000, 1.000000)" fill="#FFFFFF">
            <path d="M1.7394113,19.2856909 L4.7109056,19.2856909 L4.7109056,22.1837561 C4.7109056,23.1659895 5.51767203,23.9718023 6.49990538,23.9718023 C7.48213873,23.9718023 8.28890515,23.1659895 8.28890515,22.1837561 L8.28890515,19.2856909 L11.2594458,19.2856909 C12.2178385,19.2856909 12.9988571,18.5065796 12.9988571,17.5481868 C12.9988571,16.5897941 12.2178385,15.8106828 11.2594458,15.8106828 L8.28890515,15.8106828 L8.28890515,12.9126176 C8.28890515,11.9294306 7.48213873,11.1245714 6.49990538,11.1245714 C5.51767203,11.1245714 4.7109056,11.9294306 4.7109056,12.9126176 L4.7109056,15.8106828 L1.7394113,15.8106828 C0.781018561,15.8106828 8.8817842e-16,16.5897941 8.8817842e-16,17.5481868 C8.8817842e-16,18.5056259 0.781972188,19.2856909 1.7394113,19.2856909 L1.7394113,19.2856909 L1.7394113,19.2856909 L1.7394113,19.2856909 Z" id="Shape" sketch:type="MSShapeGroup"></path>
            <path d="M22.2,28 L22.2,0 L19.6,0 L13,3.96 L13,6.8 L19.28,3.2 L19.28,28 L22.2,28 Z" id="1" stroke="#FFFFFF" stroke-linecap="round" stroke-linejoin="round" sketch:type="MSShapeGroup"></path>
        </g>
    </g>
</svg>