<?xml version="1.0" encoding="utf-8"?>
<!-- Generator: Adobe Illustrator 16.0.4, SVG Export Plug-In . SVG Version: 6.00 Build 0)  -->
<!DOCTYPE svg PUBLIC "-//W3C//DTD SVG 1.1//EN" "http://www.w3.org/Graphics/SVG/1.1/DTD/svg11.dtd">
<svg version="1.1" id="Layer_1" xmlns="http://www.w3.org/2000/svg" xmlns:xlink="http://www.w3.org/1999/xlink" x="0px" y="0px" viewBox="0 0 120 120" enable-background="new 0 0 120 120" xml:space="preserve">
<g>
	<path fill="#FFFFFF" d="M68.958,46.522h4.773c0.445,0,0.669-0.539,0.354-0.854l-4.774-4.773c-0.314-0.315-0.853-0.092-0.853,0.354
		v4.773C68.458,46.299,68.682,46.522,68.958,46.522z"/>
	<polygon fill="#FFFFFF" points="52.82,67.18 65.739,67.18 52.82,54.261 	"/>
	<path fill="#FFFFFF" d="M74.5,48.022h-7.042c-0.276,0-0.5-0.224-0.5-0.5V40.5c0-0.275-0.224-0.5-0.5-0.5H46c-0.552,0-1,0.448-1,1
		v38c0,0.553,0.448,1,1,1h28c0.552,0,1-0.447,1-1V48.522C75,48.246,74.776,48.022,74.5,48.022z M69.139,68.588
		c-0.158,0.381-0.529,0.629-0.941,0.629h-2.214v-1.158H64.88v1.158h-1.905v-1.158h-1.104v1.158h-1.906v-1.158h-1.104v1.158h-1.905
		v-1.158h-1.103v1.158h-1.906v-1.158h-1.104v1.158h-1.041c-0.562,0-1.018-0.457-1.018-1.019v-1.29h1.129v-1.104h-1.129v-1.905h1.129
		v-1.104h-1.129V60.89h1.129v-1.104h-1.129v-1.905h1.129v-1.104h-1.129v-1.906h1.129v-1.104h-1.129v-1.966
		c0-0.412,0.248-0.783,0.629-0.94c0.379-0.158,0.818-0.071,1.109,0.221l16.396,16.396C69.209,67.769,69.297,68.208,69.139,68.588z"
		/>
</g>
</svg>
