<?xml version="1.0" encoding="utf-8"?>
<!-- Generator: Adobe Illustrator 16.0.4, SVG Export Plug-In . SVG Version: 6.00 Build 0)  -->
<!DOCTYPE svg PUBLIC "-//W3C//DTD SVG 1.1//EN" "http://www.w3.org/Graphics/SVG/1.1/DTD/svg11.dtd">
<svg version="1.1" id="Layer_1" xmlns="http://www.w3.org/2000/svg" xmlns:xlink="http://www.w3.org/1999/xlink" x="0px" y="0px" viewBox="0 0 120 120" enable-background="new 0 0 120 120" xml:space="preserve">
<g>
	<path fill="#FFFFFF" d="M59.999,40C48.972,40,40,48.972,40,60s8.972,20,19.999,20C71.028,80,80,71.028,80,60S71.028,40,59.999,40z
		 M59.999,77.404c-9.596,0-17.403-7.809-17.403-17.404s7.808-17.404,17.403-17.404c9.598,0,17.405,7.809,17.405,17.404
		S69.597,77.404,59.999,77.404z"/>
	<path fill="#FFFFFF" d="M68.771,58.876l-14.168-8.18c-0.62-0.358-1.414-0.146-1.773,0.475c-0.358,0.622-0.146,1.414,0.475,1.773
		l12.222,7.055l-12.222,7.057c-0.62,0.359-0.833,1.153-0.475,1.773c0.24,0.415,0.677,0.648,1.125,0.648
		c0.221,0,0.443-0.056,0.648-0.174l14.168-8.18c0.401-0.231,0.647-0.661,0.647-1.125C69.419,59.536,69.173,59.107,68.771,58.876z"/>
</g>
</svg>
