<?xml version="1.0" encoding="utf-8"?>
<!-- Generator: Adobe Illustrator 16.0.4, SVG Export Plug-In . SVG Version: 6.00 Build 0)  -->
<!DOCTYPE svg PUBLIC "-//W3C//DTD SVG 1.1//EN" "http://www.w3.org/Graphics/SVG/1.1/DTD/svg11.dtd">
<svg version="1.1" id="Layer_1" xmlns="http://www.w3.org/2000/svg" xmlns:xlink="http://www.w3.org/1999/xlink" x="0px" y="0px" viewBox="0 0 120 120" enable-background="new 0 0 120 120" xml:space="preserve">
<g>
	<path fill="#FFFFFF" d="M56.82,57.033c4.702,0,8.526-3.826,8.526-8.527s-3.824-8.527-8.526-8.527s-8.526,3.826-8.526,8.527
		S52.118,57.033,56.82,57.033z"/>
	<path fill="#FFFFFF" d="M74.989,54.982c3.273,0,5.937-2.664,5.937-5.938c0-3.271-2.663-5.935-5.937-5.935s-5.936,2.663-5.936,5.935
		C69.054,52.318,71.716,54.982,74.989,54.982z"/>
	<path fill="#FFFFFF" d="M85.919,64.637c-0.84-2.443-2.293-4.533-4.201-6.041c-1.971-1.558-4.289-2.381-6.705-2.381
		s-4.736,0.823-6.706,2.381c-0.443,0.351-0.859,0.734-1.25,1.147c-0.247,0.261-0.206,0.683,0.101,0.874
		c0.503,0.314,0.997,0.659,1.473,1.036c2.742,2.167,4.828,5.168,6.035,8.677c0.07,0.205,0.125,0.414,0.174,0.623
		c0.06,0,0.116,0.002,0.177,0.002c4.251,0,7.583-0.416,9.06-1.215c0.008-0.004,0.013-0.008,0.018-0.01
		c0.088-0.049,0.166-0.098,0.241-0.148c0.39-0.252,0.739-0.582,1.028-0.988C86.173,67.46,86.38,65.98,85.919,64.637z"/>
	<path fill="#FFFFFF" d="M46.324,73.069H35.381c-0.851,0-1.542-0.932-1.542-2.083c0-1.15,0.691-2.083,1.542-2.083h10.943
		c0.834,0,1.515,0.933,1.515,2.083C47.839,72.138,47.158,73.069,46.324,73.069z"/>
	<g>
		<path fill="#FFFFFF" d="M72.521,70.9c-1.206-3.51-3.293-6.51-6.033-8.678c-2.832-2.237-6.164-3.42-9.635-3.42
			s-6.801,1.014-9.633,3.25C45.765,63.205,44.5,65,43.448,66h2.876c2.288,0,4.08,2.394,4.08,5s-1.792,5-4.08,5H41.44
			c0.155,0,0.33,0.469,0.544,0.768c0.656,0.92,1.527,1.488,2.503,1.842c2.363,0.936,6.854,1.415,12.37,1.415
			c6.106,0,10.894-0.622,13.017-1.77c0.008-0.005,0.016-0.021,0.023-0.026c0.127-0.068,0.24-0.146,0.346-0.218
			c0.56-0.363,1.063-0.839,1.479-1.422C72.885,74.96,73.185,72.832,72.521,70.9z"/>
	</g>
</g>
</svg>
