<?xml version="1.0" encoding="utf-8"?>
<!-- Generator: Adobe Illustrator 16.0.4, SVG Export Plug-In . SVG Version: 6.00 Build 0)  -->
<!DOCTYPE svg PUBLIC "-//W3C//DTD SVG 1.1//EN" "http://www.w3.org/Graphics/SVG/1.1/DTD/svg11.dtd">
<svg version="1.1" id="Layer_1" xmlns="http://www.w3.org/2000/svg" xmlns:xlink="http://www.w3.org/1999/xlink" x="0px" y="0px" viewBox="0 0 120 120" enable-background="new 0 0 120 120" xml:space="preserve">
<g>
	<path fill="#038E99" d="M74.5,48.021h-7.041c-0.277,0-0.5-0.223-0.5-0.5V40.5c0-0.276-0.225-0.5-0.5-0.5H46c-0.553,0-1,0.447-1,1
		v38c0,0.553,0.447,1,1,1h28c0.553,0,1-0.447,1-1V48.521C75,48.246,74.775,48.021,74.5,48.021z M65.268,61.283h-3.328v3.262
		c0,0.719-0.584,1.305-1.305,1.305c-0.742,0-1.326-0.574-1.326-1.305v-3.262h-3.307c-0.719,0-1.303-0.575-1.303-1.283
		s0.584-1.283,1.303-1.283h3.307v-3.262c0-0.731,0.584-1.305,1.326-1.305c0.721,0,1.305,0.586,1.305,1.305v3.262h3.328
		c0.707,0,1.283,0.575,1.283,1.283S65.975,61.283,65.268,61.283z"/>
	<path fill="#038E99" d="M68.459,41.248v4.773c0,0.277,0.223,0.5,0.5,0.5h4.773c0.445,0,0.668-0.538,0.354-0.853l-4.773-4.773
		C68.996,40.58,68.459,40.803,68.459,41.248z"/>
</g>
</svg>
