<?xml version="1.0" encoding="utf-8"?>
<!-- Generator: Adobe Illustrator 16.0.4, SVG Export Plug-In . SVG Version: 6.00 Build 0)  -->
<!DOCTYPE svg PUBLIC "-//W3C//DTD SVG 1.1//EN" "http://www.w3.org/Graphics/SVG/1.1/DTD/svg11.dtd">
<svg version="1.1" id="Layer_1" xmlns="http://www.w3.org/2000/svg" xmlns:xlink="http://www.w3.org/1999/xlink" x="0px" y="0px" viewBox="0 0 120 120" enable-background="new 0 0 120 120" xml:space="preserve">
<path fill="#038E99" d="M74.035,58.547h-0.953v-6.914C73.082,45.219,67.215,40,59.996,40c-7.211,0-13.086,5.219-13.086,11.633v6.914
	h-0.953c-1.281,0-2.312,0.922-2.312,2.062v17.328c0,1.141,1.031,2.062,2.312,2.062h28.078c1.281,0,2.32-0.922,2.32-2.062V60.609
	C76.355,59.469,75.316,58.547,74.035,58.547z M52.637,51.633c0-3.602,3.305-6.539,7.359-6.539c4.062,0,7.367,2.938,7.367,6.539
	v6.914H52.637V51.633z"/>
</svg>
