<?xml version="1.0" encoding="utf-8"?>
<!-- Generator: Adobe Illustrator 16.0.4, SVG Export Plug-In . SVG Version: 6.00 Build 0)  -->
<!DOCTYPE svg PUBLIC "-//W3C//DTD SVG 1.1//EN" "http://www.w3.org/Graphics/SVG/1.1/DTD/svg11.dtd">
<svg version="1.1" id="Layer_1" xmlns="http://www.w3.org/2000/svg" xmlns:xlink="http://www.w3.org/1999/xlink" x="0px" y="0px" viewBox="0 0 120 120" enable-background="new 0 0 120 120" xml:space="preserve">
<g>
	<path fill="#038E99" d="M42.47,51.765h2.306c-0.473-0.896-0.742-1.916-0.742-2.998c0-0.676,0.104-1.328,0.298-1.94H42.47
		c-1.364,0-2.47,1.105-2.47,2.469C40,50.659,41.105,51.765,42.47,51.765z"/>
	<path fill="#038E99" d="M77.53,51.765c1.364,0,2.47-1.105,2.47-2.469c0-1.363-1.105-2.469-2.47-2.469H56.655
		c0.194,0.612,0.299,1.264,0.299,1.94c0,1.082-0.27,2.101-0.743,2.998H77.53z"/>
	<circle fill="#038E99" cx="50.494" cy="48.767" r="4.979"/>
	<path fill="#038E99" d="M77.53,57.795h-1.315c0.316,0.762,0.493,1.594,0.493,2.469c0,0.874-0.177,1.708-0.493,2.469h1.315
		c1.364,0,2.47-1.105,2.47-2.469C80,58.901,78.895,57.795,77.53,57.795z"/>
	<path fill="#038E99" d="M42.47,62.733h21.809c-0.316-0.761-0.493-1.595-0.493-2.469c0-0.875,0.176-1.707,0.493-2.469H42.47
		c-1.364,0-2.47,1.105-2.47,2.469C40,61.628,41.105,62.733,42.47,62.733z"/>
	<circle fill="#038E99" cx="70.247" cy="60.264" r="4.979"/>
	<path fill="#038E99" d="M77.53,68.763H65.968c0.316,0.762,0.493,1.595,0.493,2.47c0,0.874-0.177,1.708-0.493,2.469H77.53
		c1.364,0,2.47-1.105,2.47-2.469C80,69.869,78.895,68.763,77.53,68.763z"/>
	<path fill="#038E99" d="M42.47,68.763c-1.364,0-2.47,1.105-2.47,2.47c0,1.364,1.105,2.469,2.47,2.469h11.562
		c-0.316-0.762-0.493-1.595-0.493-2.469c0-0.875,0.177-1.708,0.493-2.47H42.47z"/>
	<circle fill="#038E99" cx="60" cy="71.233" r="4.98"/>
</g>
</svg>
