<?xml version="1.0" encoding="utf-8"?>
<!-- Generator: Adobe Illustrator 16.0.4, SVG Export Plug-In . SVG Version: 6.00 Build 0)  -->
<!DOCTYPE svg PUBLIC "-//W3C//DTD SVG 1.1//EN" "http://www.w3.org/Graphics/SVG/1.1/DTD/svg11.dtd">
<svg version="1.1" id="Layer_1" xmlns="http://www.w3.org/2000/svg" xmlns:xlink="http://www.w3.org/1999/xlink" x="0px" y="0px" viewBox="0 0 120 120" enable-background="new 0 0 120 120" xml:space="preserve">
<g>
	<path fill="#038E99" d="M79.293,58.146H51.304c-0.239,0-0.462,0.121-0.593,0.321L40.324,74.413
		c-0.306,0.469,0.032,1.087,0.592,1.087h27.989c0.239,0,0.462-0.12,0.593-0.321l10.388-15.946
		C80.19,58.764,79.854,58.146,79.293,58.146z"/>
	<path fill="#038E99" d="M72.938,47.73h2.374c0.223,0,0.333-0.267,0.176-0.423l-2.373-2.364c-0.157-0.156-0.426-0.046-0.426,0.176
		v2.363C72.689,47.62,72.801,47.73,72.938,47.73z"/>
	<path fill="#038E99" d="M75.943,48.722c0-0.137-0.111-0.248-0.248-0.248h-3.503c-0.138,0-0.249-0.111-0.249-0.248v-3.478
		c0-0.137-0.111-0.248-0.248-0.248H61.519c-0.274,0-0.497,0.222-0.497,0.495v11.229h14.922V48.722z"/>
	<path fill="#038E99" d="M59.512,46.515h-3.652c-0.274,0-0.497,0.222-0.497,0.495v9.215h4.149V46.515z"/>
	<path fill="#038E99" d="M49.805,56.067h4.219v-3.753H41.414c-0.781,0-1.414,0.63-1.414,1.407v16.808l9.212-14.142
		C49.342,56.188,49.564,56.067,49.805,56.067z"/>
</g>
</svg>
