<?xml version="1.0" encoding="utf-8"?>
<!-- Generator: Adobe Illustrator 16.0.4, SVG Export Plug-In . SVG Version: 6.00 Build 0)  -->
<!DOCTYPE svg PUBLIC "-//W3C//DTD SVG 1.1//EN" "http://www.w3.org/Graphics/SVG/1.1/DTD/svg11.dtd">
<svg version="1.1" id="Layer_1" xmlns="http://www.w3.org/2000/svg" xmlns:xlink="http://www.w3.org/1999/xlink" x="0px" y="0px" viewBox="0 0 120 120" enable-background="new 0 0 120 120" xml:space="preserve">
<g>
	<path fill="#038E99" d="M58.321,56.615c4.702,0,8.526-3.826,8.526-8.527s-3.824-8.527-8.526-8.527s-8.526,3.826-8.526,8.527
		S53.619,56.615,58.321,56.615z"/>
	<path fill="#038E99" d="M76.49,54.564c3.273,0,5.937-2.664,5.937-5.938c0-3.271-2.663-5.935-5.937-5.935s-5.936,2.663-5.936,5.935
		C70.554,51.9,73.216,54.564,76.49,54.564z"/>
	<path fill="#038E99" d="M87.419,64.219c-0.84-2.443-2.293-4.533-4.201-6.041c-1.971-1.558-4.289-2.381-6.705-2.381
		s-4.736,0.823-6.706,2.381c-0.443,0.351-0.859,0.734-1.25,1.147c-0.247,0.261-0.206,0.683,0.101,0.874
		c0.503,0.314,0.997,0.659,1.473,1.036c2.742,2.167,4.828,5.168,6.035,8.677c0.07,0.205,0.125,0.414,0.174,0.623
		c0.06,0,0.116,0.002,0.177,0.002c4.251,0,7.583-0.416,9.06-1.215c0.008-0.004,0.013-0.008,0.018-0.01
		c0.088-0.049,0.166-0.098,0.241-0.148c0.39-0.252,0.739-0.582,1.028-0.988C87.673,67.042,87.88,65.562,87.419,64.219z"/>
	<path fill="#038E99" d="M50.175,72.732h-5.613v5.505c0,1.215-0.988,2.202-2.205,2.202c-1.252,0-2.24-0.967-2.24-2.202v-5.505
		h-5.574c-1.216,0-2.203-0.969-2.203-2.164c0-1.194,0.987-2.164,2.203-2.164h5.574v-5.505c0-1.235,0.988-2.202,2.24-2.202
		c1.217,0,2.205,0.988,2.205,2.202v5.505h5.613c1.194,0,2.164,0.97,2.164,2.164C52.339,71.764,51.369,72.732,50.175,72.732z"/>
	<g>
		<path fill="#038E99" d="M74.021,70.482c-1.206-3.51-3.293-6.51-6.033-8.678c-2.832-2.237-6.164-3.42-9.635-3.42
			s-6.801,1.183-9.633,3.42c-0.363,0.287-0.556,0.591-0.896,0.906C47.827,62.775,48,62.835,48,62.899V66h2.175
			c2.917,0,5.289,2.084,5.289,5s-2.373,5-5.289,5H48v2.237c0,0.124-0.185,0.24-0.193,0.363c2.536,0.617,6.203,0.96,10.629,0.96
			c6.106,0,10.854-0.599,12.978-1.746c0.008-0.005-0.004-0.01,0.004-0.016c0.127-0.068,0.23-0.139,0.336-0.211
			c0.56-0.363,1.059-0.837,1.474-1.42C74.39,74.539,74.685,72.414,74.021,70.482z"/>
	</g>
</g>
</svg>
