<?xml version="1.0" encoding="utf-8"?>
<!-- Generator: Adobe Illustrator 16.0.4, SVG Export Plug-In . SVG Version: 6.00 Build 0)  -->
<!DOCTYPE svg PUBLIC "-//W3C//DTD SVG 1.1//EN" "http://www.w3.org/Graphics/SVG/1.1/DTD/svg11.dtd">
<svg version="1.1" id="Layer_1" xmlns="http://www.w3.org/2000/svg" xmlns:xlink="http://www.w3.org/1999/xlink" x="0px" y="0px" viewBox="0 0 120 120" enable-background="new 0 0 120 120" xml:space="preserve">
<g>
	<path fill="#038E99" d="M60,80c2.764,0,5.064-1.967,5.586-4.576c0.115-0.584-0.367-1.119-0.963-1.119h-9.246
		c-0.594,0-1.078,0.535-0.961,1.119C54.936,78.033,57.238,80,60,80z"/>
	<path fill="#038E99" d="M77.689,69.493c-1.623-1.644-2.801-3.991-3.268-6.69v-6.595C74.422,46.107,67.967,40,60.004,40h-0.006
		c-7.965,0-14.42,6.107-14.42,16.208v6.595c-0.465,2.699-1.643,5.047-3.266,6.69c-0.764,0.771-0.35,2.354,0.617,2.354h2.76h28.732
		h2.648C78.037,71.848,78.451,70.265,77.689,69.493z"/>
</g>
</svg>
