<?xml version="1.0" encoding="utf-8"?>
<!-- Generator: Adobe Illustrator 16.0.4, SVG Export Plug-In . SVG Version: 6.00 Build 0)  -->
<!DOCTYPE svg PUBLIC "-//W3C//DTD SVG 1.1//EN" "http://www.w3.org/Graphics/SVG/1.1/DTD/svg11.dtd">
<svg version="1.1" id="Layer_1" xmlns="http://www.w3.org/2000/svg" xmlns:xlink="http://www.w3.org/1999/xlink" x="0px" y="0px" viewBox="0 0 120 120" enable-background="new 0 0 120 120" xml:space="preserve">
<g>
	<path fill="#038E99" d="M59.999,40C48.972,40,40,48.972,40,60s8.972,20,19.999,20C71.028,80,80,71.028,80,60S71.028,40,59.999,40z
		 M59.999,77.404c-9.596,0-17.403-7.809-17.403-17.404s7.808-17.404,17.403-17.404c9.598,0,17.405,7.809,17.405,17.404
		S69.597,77.404,59.999,77.404z"/>
	<path fill="#038E99" d="M66.394,61.83h-4.492v4.403c0,0.972-0.791,1.762-1.762,1.762c-1.005,0-1.792-0.774-1.792-1.762V61.83
		h-4.462c-0.973,0-1.761-0.777-1.761-1.732s0.788-1.731,1.761-1.731h4.462v-4.403c0-0.989,0.787-1.762,1.792-1.762
		c0.971,0,1.762,0.79,1.762,1.762v4.403h4.492c0.954,0,1.731,0.776,1.731,1.731S67.348,61.83,66.394,61.83z"/>
</g>
</svg>
