<?xml version="1.0" encoding="utf-8"?>
<!-- Generator: Adobe Illustrator 16.0.4, SVG Export Plug-In . SVG Version: 6.00 Build 0)  -->
<!DOCTYPE svg PUBLIC "-//W3C//DTD SVG 1.1//EN" "http://www.w3.org/Graphics/SVG/1.1/DTD/svg11.dtd">
<svg version="1.1" id="Layer_1" xmlns="http://www.w3.org/2000/svg" xmlns:xlink="http://www.w3.org/1999/xlink" x="0px" y="0px" viewBox="0 0 120 120" enable-background="new 0 0 120 120" xml:space="preserve">
<g>
	<path fill="#038E99" d="M68.498,71.4L68.5,48.6c0-0.332,0.447-0.6,1-0.6H79c0.553,0,1,0.268,1,0.6V71.4c0,0.33-0.447,0.6-1,0.6
		h-9.502C68.947,72,68.498,71.73,68.498,71.4z"/>
	<path fill="#038E99" d="M54.247,71.4L54.248,48.6c0-0.332,0.447-0.6,1-0.6h9.5c0.554,0,1.002,0.268,1.002,0.6L65.748,71.4
		c0,0.33-0.446,0.6-1,0.6h-9.5C54.695,72,54.247,71.73,54.247,71.4z"/>
	<path fill="#038E99" d="M40,71.4V48.6c0-0.332,0.447-0.6,1-0.6h9.5c0.553,0,1,0.268,1,0.6V71.4c0,0.33-0.448,0.6-1,0.6H41
		C40.447,72,40,71.73,40,71.4z"/>
</g>
</svg>
