<?xml version="1.0" encoding="utf-8"?>
<!-- Generator: Adobe Illustrator 18.1.1, SVG Export Plug-In . SVG Version: 6.00 Build 0)  -->
<!DOCTYPE svg PUBLIC "-//W3C//DTD SVG 1.1//EN" "http://www.w3.org/Graphics/SVG/1.1/DTD/svg11.dtd">
<svg version="1.1" id="Layer_1" xmlns="http://www.w3.org/2000/svg" xmlns:xlink="http://www.w3.org/1999/xlink" x="0px" y="0px"
	 viewBox="0 0 110 100" enable-background="new 0 0 110 100" xml:space="preserve">
<g>
	<circle opacity="0.75" fill="#008D98" cx="55" cy="50" r="48.9"/>
	<g>
		<g>
			<path fill="#FFFFFF" d="M71,29l-9.4,2c-0.4,0.1-0.7-0.2-0.8-0.5l-2-9.4c-0.1-0.4-0.4-0.6-0.8-0.5l-27.3,5.7
				c-0.7,0.2-1.2,0.9-1.1,1.6l10.6,50.7c0.2,0.7,0.9,1.2,1.6,1.1l37.4-7.8c0.7-0.2,1.2-0.9,1.1-1.6l-8.5-40.7
				C71.7,29.1,71.3,28.9,71,29z"/>
			<path fill="#FBAF1D" d="M63.2,28.5l6.4-1.3c0.6-0.1,0.7-0.9,0.2-1.2l-7.7-5c-0.5-0.3-1.2,0.1-1,0.7l1.3,6.4
				C62.4,28.4,62.8,28.6,63.2,28.5z"/>
		</g>
		<path fill="#FBAF1D" d="M69.8,55.5L45.5,39.6c-0.4-0.3-1-0.3-1.4,0c-0.4,0.3-0.6,0.8-0.5,1.3l0.5,2.4l1.4-0.3l0.3,1.4l-1.4,0.3
			l0.5,2.3l1.4-0.3l0.3,1.4l-1.4,0.3l0.5,2.3l1.4-0.3l0.3,1.4L45.9,52l0.5,2.3l1.4-0.3l0.3,1.4l-1.4,0.3l0.5,2.3l1.4-0.3l0.3,1.4
			l-1.4,0.3l0.3,1.6c0.1,0.7,0.8,1.1,1.5,1l1.3-0.3l-0.3-1.4l1.4-0.3l0.3,1.4l2.3-0.5L54,59.5l1.4-0.3l0.3,1.4l2.3-0.5l-0.3-1.4
			l1.4-0.3l0.3,1.4l2.3-0.5L61.3,58l1.4-0.3l0.3,1.4l2.3-0.5L65,57.2l1.4-0.3l0.3,1.4l2.7-0.6c0.5-0.1,0.9-0.5,1-1
			C70.5,56.3,70.3,55.7,69.8,55.5z M50,59.2l-3.3-15.8l19.2,12.5L50,59.2z"/>
	</g>
</g>
</svg>
