<?xml version="1.0" encoding="utf-8"?>
<!-- Generator: Adobe Illustrator 18.1.1, SVG Export Plug-In . SVG Version: 6.00 Build 0)  -->
<!DOCTYPE svg PUBLIC "-//W3C//DTD SVG 1.1//EN" "http://www.w3.org/Graphics/SVG/1.1/DTD/svg11.dtd">
<svg version="1.1" id="Layer_1" xmlns="http://www.w3.org/2000/svg" xmlns:xlink="http://www.w3.org/1999/xlink" x="0px" y="0px"
	 viewBox="0 0 110 100" enable-background="new 0 0 110 100" xml:space="preserve">
<circle opacity="0.75" fill="#FBAF1D" cx="55" cy="49.9" r="48.9"/>
<g>
	<g>
		<path fill="#FFFFFF" d="M74.8,33.7h-9.6c-0.4,0-0.7-0.3-0.7-0.7v-9.6c0-0.4-0.3-0.7-0.7-0.7H35.9c-0.8,0-1.4,0.6-1.4,1.4v51.8
			c0,0.8,0.6,1.4,1.4,1.4h38.2c0.8,0,1.4-0.6,1.4-1.4V34.4C75.4,34,75.1,33.7,74.8,33.7z"/>
		<path fill="#008D98" d="M67.2,31.6h6.5c0.6,0,0.9-0.7,0.5-1.2L67.7,24c-0.4-0.4-1.2-0.1-1.2,0.5v6.5
			C66.5,31.3,66.8,31.6,67.2,31.6z"/>
	</g>
	<path fill="#008D98" d="M68.2,59.4L47.7,38.8c-0.4-0.4-0.9-0.5-1.4-0.3c-0.5,0.2-0.8,0.7-0.8,1.2v2.5h1.4v1.4h-1.4V46h1.4v1.4h-1.4
		v2.4h1.4v1.4h-1.4v2.4h1.4v1.4h-1.4v2.4h1.4v1.4h-1.4v1.6c0,0.7,0.6,1.3,1.3,1.3h1.3v-1.5h1.4v1.5h2.4v-1.5h1.4v1.5h2.4v-1.5H57
		v1.5h2.4v-1.5h1.4v1.5h2.4v-1.5h1.4v1.5h2.8c0.5,0,1-0.3,1.2-0.8C68.7,60.3,68.6,59.7,68.2,59.4z M48.1,59V42.8L64.3,59H48.1z"/>
</g>
</svg>
