<?xml version="1.0" encoding="utf-8"?>
<!-- Generator: Adobe Illustrator 18.1.1, SVG Export Plug-In . SVG Version: 6.00 Build 0)  -->
<!DOCTYPE svg PUBLIC "-//W3C//DTD SVG 1.1//EN" "http://www.w3.org/Graphics/SVG/1.1/DTD/svg11.dtd">
<svg version="1.1" id="Layer_1" xmlns="http://www.w3.org/2000/svg" xmlns:xlink="http://www.w3.org/1999/xlink" x="0px" y="0px"
	 viewBox="62.1 0 172.5 150" enable-background="new 62.1 0 172.5 150" xml:space="preserve">
<g>
	<circle opacity="0.75" fill="#008D98" cx="148.3" cy="75" r="72.2"/>
	<g>
		<path fill="#FFFFFF" d="M190.9,83.5c-7.3-10.3-17.3-21.2-42.6-21.2c-27.6,0-37.4,13.8-42.6,21.2l-1.5,2.1l1.3,2.2
			c3.4,5.6,16.7,23.7,46.7,23.7c24.9,0,33.3-14.4,37.8-22.1c0.3-0.6,0.6-1.1,0.9-1.6l1.3-2.2L190.9,83.5z M159.6,78.7
			c0,3.6-2.9,6.6-6.6,6.6c-3.6,0-6.6-2.9-6.6-6.6c0-3.6,2.9-6.6,6.6-6.6C156.7,72.1,159.6,75,159.6,78.7z M152.3,103.7
			c-22.7,0-34.1-11.7-38.5-17.7c4.5-5.9,10.1-11.5,20.4-14.1c-0.8,2.1-1.2,4.4-1.2,6.8c0,11.1,9,20.1,20.1,20.1s20.1-9,20.1-20.1
			c0-0.8,0-1.5-0.1-2.3c4.6,2.9,7.6,6.5,10,9.7C178.7,93.3,172.2,103.7,152.3,103.7z"/>
		<path fill="#FBAF1D" d="M148.3,50.7c1.8,0,3.5,0,5.1,0.1V36.5h-9.1v14.3C145.7,50.7,147,50.7,148.3,50.7z"/>
		<path fill="#FBAF1D" d="M176.5,54.7l5.8-11.4l-8.1-4.1l-6.7,13.1l0.5,0.2C171.1,53.1,173.9,53.8,176.5,54.7z"/>
		<path fill="#FBAF1D" d="M129.9,52.3l-8-10.5l-7.2,5.5l5.6,7.4C123.3,53.7,126.5,52.9,129.9,52.3z"/>
	</g>
</g>
</svg>
