<?xml version="1.0" encoding="utf-8"?>
<!-- Generator: Adobe Illustrator 18.1.1, SVG Export Plug-In . SVG Version: 6.00 Build 0)  -->
<!DOCTYPE svg PUBLIC "-//W3C//DTD SVG 1.1//EN" "http://www.w3.org/Graphics/SVG/1.1/DTD/svg11.dtd">
<svg version="1.1" id="Layer_1" xmlns="http://www.w3.org/2000/svg" xmlns:xlink="http://www.w3.org/1999/xlink" x="0px" y="0px"
	 viewBox="0 0 110 100" enable-background="new 0 0 110 100" xml:space="preserve">
<circle opacity="0.75" fill="#FBAF1D" cx="55" cy="49.9" r="48.9"/>
<g>
	<circle fill="#FFFFFF" cx="55" cy="50" r="36.6"/>
	<g>
		<path fill="#008D98" d="M58.9,55.9c2.5-1.8,6.3,1.5,3.6,3.6c-1.9,1.4-4.9,1.4-5.8-1.1c-0.4-1.1-2.2,0.5-1.8,1.5
			c1.5,4.3,7.5,2.8,9.7,0c1.2-1.6,1.3-3.7,0-5.3c-1.6-2-4.6-1.5-6.5-0.2C57,55.1,57.6,56.8,58.9,55.9L58.9,55.9z"/>
	</g>
	<g>
		<g>
			<path fill="#008D98" d="M43.8,67.6c6.3,4.2,18.4,6.2,23.7-0.6c0.9-1.2-0.4-2.3-1.3-1.1c-2.3,2.9-6.4,3.4-9.8,3.2
				c-3.8-0.2-7.8-1.2-11-3.4C44.4,65.1,42.9,67,43.8,67.6L43.8,67.6z"/>
		</g>
		<g>
			<path fill="#008D98" d="M43.1,67.8c1.3,5.3,5.3,9.4,11,9c5.6-0.4,10.3-4.3,12.7-9.2c0.7-1.4-1.1-1.8-1.7-0.6
				c-2,4.1-5.9,7.4-10.7,7.6c-4.9,0.2-8.3-3.4-9.4-7.9C44.8,65.4,42.9,66.8,43.1,67.8L43.1,67.8z"/>
		</g>
	</g>
	<g>
		<g>
			<path fill="#FBAF1D" d="M63.9,43.3c0.5-1.1,1.5-2.4,2.8-1.7c0.6,0.3,1.5-1,0.8-1.4c-2-1.1-3.9,1-4.7,2.7
				C62.4,43.9,63.5,44.1,63.9,43.3L63.9,43.3z"/>
		</g>
		<g>
			<path fill="#FBAF1D" d="M42.7,42.6c0.3-1,1.2-1.6,2.2-1.6c0.7,0,1.4-1.5,0.5-1.4c-1.8,0.1-3.5,1.3-4,3.1
				C41.1,43.7,42.5,43.4,42.7,42.6L42.7,42.6z"/>
		</g>
	</g>
	<g>
		<g>
			<path fill="#008D98" d="M52.3,38.9c-1.3-2.8-4.8-2.9-7.4-2.1C42,37.7,39,39.9,38.6,43c-0.4,3.5,3,6.9,6.3,7.3
				c3.2,0.5,6.2-1.9,7.6-4.6c1.7-3.3,1.2-7.3-2.3-9c-0.6-0.3-1.5,1-0.8,1.4c5.1,2.6,2.1,10.8-3.1,10.9c-2.8,0.1-6.1-2.7-6.4-5.6
				c-0.2-2.5,2.2-4.2,4.2-5.1c2.3-0.9,5.7-1.1,6.9,1.5C51.4,40.6,52.6,39.6,52.3,38.9L52.3,38.9z"/>
		</g>
		<g>
			<path fill="#008D98" d="M71,37.8c-2.8-1.2-5.9-0.8-8.3,1c-2,1.5-3.5,4.1-2.8,6.6c0.9,2.9,4.1,4.7,6.9,5.1c3,0.4,6.1-0.7,7.4-3.6
				C75.5,43.5,74.1,39.5,71,37.8c-0.6-0.3-1.5,1-0.8,1.4c2.3,1.2,3.5,4,3,6.5c-0.5,2.8-3.1,3.7-5.7,3.4c-2.3-0.3-4.9-1.6-6.1-3.7
				c-1-1.9-0.3-4,1.3-5.2c2.1-1.7,4.9-1.9,7.4-0.9C70.9,39.5,71.7,38.1,71,37.8L71,37.8z"/>
		</g>
		<g>
			<path fill="#008D98" d="M52.5,44.2c2.4-1.3,5.2-1.5,7.5,0.2c0.6,0.4,1.7-0.8,1-1.2c-2.7-1.9-5.9-1.7-8.7-0.2
				C51.6,43.3,51.6,44.7,52.5,44.2L52.5,44.2z"/>
		</g>
		<g>
			<path fill="#008D98" d="M73.7,43.7c3.9-1.4,8.1-1.8,12-3.3c0.4-0.1,0.7-0.5,0.7-0.9c0-0.3-0.2-0.7-0.6-0.5
				c-3.9,1.5-8.1,1.8-12,3.3C73.1,42.6,72.8,44.1,73.7,43.7L73.7,43.7z"/>
		</g>
		<g>
			<path fill="#008D98" d="M25.4,39.1c1.2,0.1,2.1,0.8,3.1,1.3c1.2,0.5,2.5,0.9,3.8,1.2c2.2,0.6,4.4,1.1,6.5,2.2
				c0.6,0.3,1.5-1,0.8-1.4c-2.1-1.2-4.5-1.7-6.8-2.3c-1.3-0.4-2.6-0.7-3.7-1.3c-1.1-0.5-2-1-3.1-1.2C25.1,37.6,24.5,39,25.4,39.1
				L25.4,39.1z"/>
		</g>
	</g>
</g>
</svg>
