<?xml version="1.0" encoding="utf-8"?>
<!-- Generator: Adobe Illustrator 18.1.1, SVG Export Plug-In . SVG Version: 6.00 Build 0)  -->
<!DOCTYPE svg PUBLIC "-//W3C//DTD SVG 1.1//EN" "http://www.w3.org/Graphics/SVG/1.1/DTD/svg11.dtd">
<svg version="1.1" id="Layer_1" xmlns="http://www.w3.org/2000/svg" xmlns:xlink="http://www.w3.org/1999/xlink" x="0px" y="0px"
	 viewBox="0 0 110 100" enable-background="new 0 0 110 100" xml:space="preserve">
<circle opacity="0.75" fill="#FBAF1D" cx="55" cy="49.9" r="48.9"/>
<g>
	<g>
		<path fill="#FFFFFF" d="M65.2,69.3l0.8,0.4c0.5,0.2,1.1,0,1.3-0.4l13.6-27c0.2-0.5,0-1.1-0.4-1.3l-0.8-0.4c-0.5-0.2-1.1,0-1.3,0.4
			L64.8,68C64.5,68.5,64.7,69.1,65.2,69.3z"/>
		<path fill="#FFFFFF" d="M69.2,71.3l0.8,0.4c0.5,0.2,1.1,0,1.3-0.4l13.6-27c0.2-0.5,0-1.1-0.4-1.3l-0.8-0.4c-0.5-0.2-1.1,0-1.3,0.4
			L68.8,70C68.5,70.5,68.7,71.1,69.2,71.3z"/>
		<path fill="#FFFFFF" d="M73.2,73.3l0.8,0.4c0.5,0.2,1.1,0,1.3-0.4l13.6-27c0.2-0.5,0-1.1-0.4-1.3l-0.8-0.4c-0.5-0.2-1.1,0-1.3,0.4
			L72.7,72C72.5,72.5,72.7,73.1,73.2,73.3z"/>
	</g>
	<path fill="#FFFFFF" d="M88.1,34.8c-2.6-1.3-5.8-0.4-7.4,2c-0.2,0.4-0.1,0.9,0.3,1.1l9,4.5c0.4,0.2,0.9,0,1-0.4
		C91.9,39.1,90.7,36.1,88.1,34.8z"/>
	<path fill="#008D98" d="M65.6,80.5c-0.3,0.2-0.7,0-0.8-0.4l-0.3-3l-0.3-3c0-0.4,0.3-0.6,0.7-0.4l2.8,1.4l2.8,1.4
		c0.3,0.2,0.4,0.6,0.1,0.8l-2.6,1.6L65.6,80.5z"/>
</g>
<g>
	<g>
		<path fill="#FFFFFF" d="M67.4,46.7l-34,15.6c-1,0.5-2.2,0-2.7-1L20.1,37.9c-0.5-1,0-2.2,1-2.7l34-15.6c1-0.5,2.2,0,2.7,1L68.4,44
			C68.8,45,68.4,46.2,67.4,46.7z"/>
		<g>
			<path fill="#008D98" d="M35.1,54.9c-0.7,0.2-1.4,0-1.9-0.5c-0.5-0.5-0.7-1.2-0.6-1.8l1.6-8.2c0.1-0.8,0.7-1.4,1.5-1.6
				c0.5-0.1,1-0.1,1.5,0.2l2.8,0.9l1.9-10.7c0.3-1.3,1.8-1.9,2.9-1.4l15.7,7.9c0.7,0.3,1.1,1.1,1.1,1.8c0,0.8-0.5,1.5-1.2,1.8
				L35.5,54.7C35.3,54.8,35.2,54.8,35.1,54.9z M36.3,45l-1.5,7.7l24.4-11.2L44,33.8l-1.9,10.7c-0.2,0.8-0.7,1.3-1.5,1.5
				c-0.5,0.1-1,0.1-1.5-0.2L36.3,45z"/>
		</g>
	</g>
	<circle fill="#FBAF1D" cx="35" cy="37" r="2.4"/>
</g>
</svg>
