<?xml version="1.0" encoding="utf-8"?>
<!-- Generator: Adobe Illustrator 18.1.1, SVG Export Plug-In . SVG Version: 6.00 Build 0)  -->
<!DOCTYPE svg PUBLIC "-//W3C//DTD SVG 1.1//EN" "http://www.w3.org/Graphics/SVG/1.1/DTD/svg11.dtd">
<svg version="1.1" id="Layer_1" xmlns="http://www.w3.org/2000/svg" xmlns:xlink="http://www.w3.org/1999/xlink" x="0px" y="0px"
	 viewBox="0 0 110 100" enable-background="new 0 0 110 100" xml:space="preserve">
<g>
	<circle opacity="0.75" fill="#008D98" cx="55" cy="50" r="48.9"/>
	<g>
		<g>
			<path fill="#FFFFFF" d="M65.2,69.4l0.8,0.4c0.5,0.2,1.1,0,1.3-0.4l13.6-27c0.2-0.5,0-1.1-0.4-1.3l-0.8-0.4
				c-0.5-0.2-1.1,0-1.3,0.4l-13.6,27C64.5,68.6,64.7,69.2,65.2,69.4z"/>
			<path fill="#FFFFFF" d="M69.2,71.4l0.8,0.4c0.5,0.2,1.1,0,1.3-0.4l13.6-27c0.2-0.5,0-1.1-0.4-1.3l-0.8-0.4
				c-0.5-0.2-1.1,0-1.3,0.4l-13.6,27C68.5,70.5,68.7,71.1,69.2,71.4z"/>
			<path fill="#FFFFFF" d="M73.2,73.4l0.8,0.4c0.5,0.2,1.1,0,1.3-0.4l13.6-27c0.2-0.5,0-1.1-0.4-1.3l-0.8-0.4
				c-0.5-0.2-1.1,0-1.3,0.4L72.7,72C72.5,72.5,72.7,73.1,73.2,73.4z"/>
		</g>
		<path fill="#FFFFFF" d="M88.1,34.8c-2.6-1.3-5.8-0.4-7.4,2c-0.2,0.4-0.1,0.9,0.3,1.1l9,4.5c0.4,0.2,0.9,0,1-0.4
			C91.9,39.2,90.7,36.1,88.1,34.8z"/>
		<path fill="#FBAF1D" d="M65.5,80.6c-0.3,0.2-0.7,0-0.8-0.4l-0.3-3l-0.3-3c0-0.4,0.3-0.6,0.7-0.4l2.8,1.4l2.8,1.4
			c0.3,0.2,0.4,0.6,0.1,0.8L68.1,79L65.5,80.6z"/>
	</g>
	<g>
		<g>
			<path fill="#FFFFFF" d="M67.4,46.7l-34,15.6c-1,0.5-2.2,0-2.7-1L20,38c-0.5-1,0-2.2,1-2.7l34-15.6c1-0.5,2.2,0,2.7,1l10.7,23.3
				C68.8,45.1,68.4,46.3,67.4,46.7z"/>
			<g>
				<path fill="#FBAF1D" d="M35.1,54.9c-0.7,0.2-1.4,0-1.9-0.5c-0.5-0.5-0.7-1.2-0.6-1.8l1.6-8.2c0.1-0.8,0.7-1.4,1.5-1.6
					c0.5-0.1,1-0.1,1.5,0.2l2.8,0.9l1.9-10.7c0.3-1.3,1.8-1.9,2.9-1.4l15.7,7.9c0.7,0.3,1.1,1.1,1.1,1.8c0,0.8-0.5,1.5-1.2,1.8
					L35.4,54.8C35.3,54.8,35.2,54.9,35.1,54.9z M36.3,45l-1.5,7.7l24.4-11.2L44,33.9L42,44.6c-0.2,0.8-0.7,1.3-1.5,1.5
					c-0.5,0.1-1,0.1-1.5-0.2L36.3,45z"/>
			</g>
		</g>
		<circle fill="#FBAF1D" cx="34.9" cy="37.1" r="2.4"/>
	</g>
</g>
</svg>
