<?xml version="1.0" encoding="utf-8"?>
<!-- Generator: Adobe Illustrator 16.0.4, SVG Export Plug-In . SVG Version: 6.00 Build 0)  -->
<!DOCTYPE svg PUBLIC "-//W3C//DTD SVG 1.1//EN" "http://www.w3.org/Graphics/SVG/1.1/DTD/svg11.dtd">
<svg version="1.1" id="Layer_1" xmlns="http://www.w3.org/2000/svg" xmlns:xlink="http://www.w3.org/1999/xlink" x="0px" y="0px" viewBox="0 0 120 120" enable-background="new 0 0 120 120" xml:space="preserve">
<path fill="#004D59" d="M78.263,40H41.737c-0.792,0-1.434,0.643-1.434,1.433v25.765c0,0.79,0.642,1.433,1.434,1.433h20.934
	c0.086,0.055,0.167,0.117,0.241,0.188l14.339,10.76c0.901,0.901,2.445,0.264,2.445-1.013V68.63V41.433
	C79.696,40.643,79.054,40,78.263,40z M66.896,61.498H46.507c-0.42,0-0.76-0.571-0.76-1.276c0-0.703,0.34-1.274,0.76-1.274h20.389
	c0.419,0,0.759,0.571,0.759,1.274C67.654,60.927,67.314,61.498,66.896,61.498z M45.747,54.271c0-0.705,0.34-1.275,0.76-1.275h15.096
	c0.42,0,0.76,0.57,0.76,1.275c0,0.704-0.34,1.274-0.76,1.274H46.507C46.087,55.545,45.747,54.975,45.747,54.271z M71.073,49.382
	H46.507c-0.42,0-0.76-0.572-0.76-1.275c0-0.705,0.34-1.275,0.76-1.275h24.566c0.42,0,0.761,0.57,0.761,1.275
	C71.834,48.81,71.493,49.382,71.073,49.382z"/>
</svg>
