<?xml version="1.0" encoding="utf-8"?>
<!-- Generator: Adobe Illustrator 16.0.4, SVG Export Plug-In . SVG Version: 6.00 Build 0)  -->
<!DOCTYPE svg PUBLIC "-//W3C//DTD SVG 1.1//EN" "http://www.w3.org/Graphics/SVG/1.1/DTD/svg11.dtd">
<svg version="1.1" id="Layer_1" xmlns="http://www.w3.org/2000/svg" xmlns:xlink="http://www.w3.org/1999/xlink" x="0px" y="0px" viewBox="0 0 120 120" enable-background="new 0 0 120 120" xml:space="preserve">
<g>
	<path fill="#004D59" d="M53.321,57.055c4.702,0,8.526-3.826,8.526-8.527S58.023,40,53.321,40s-8.526,3.826-8.526,8.527
		S48.619,57.055,53.321,57.055z"/>
	<path fill="#004D59" d="M62.988,62.244c-2.832-2.237-6.164-3.42-9.635-3.42s-6.801,1.183-9.633,3.42
		c-2.74,2.168-4.827,5.168-6.033,8.678c-0.664,1.932-0.365,4.057,0.798,5.686c0.656,0.92,1.527,1.578,2.503,1.932
		C43.351,79.475,47.841,80,53.358,80c6.106,0,10.894-0.599,13.017-1.746c0.008-0.005,0.016-0.01,0.023-0.016
		c0.127-0.068,0.24-0.139,0.346-0.211c0.56-0.363,1.063-0.837,1.479-1.42c1.163-1.629,1.463-3.754,0.799-5.686
		C67.815,67.412,65.728,64.412,62.988,62.244z"/>
	<path fill="#004D59" d="M71.49,55.004c3.273,0,5.937-2.664,5.937-5.938c0-3.271-2.663-5.935-5.937-5.935s-5.936,2.663-5.936,5.935
		C65.554,52.34,68.216,55.004,71.49,55.004z"/>
	<path fill="#004D59" d="M82.419,64.658c-0.84-2.443-2.293-4.533-4.201-6.041c-1.971-1.558-4.289-2.381-6.705-2.381
		s-4.736,0.823-6.706,2.381c-0.443,0.351-0.859,0.734-1.25,1.147c-0.247,0.261-0.206,0.683,0.101,0.874
		c0.503,0.314,0.997,0.659,1.473,1.036c2.742,2.167,4.828,5.168,6.035,8.677c0.07,0.205,0.125,0.414,0.174,0.623
		c0.06,0,0.116,0.002,0.177,0.002c4.251,0,7.583-0.416,9.06-1.215c0.008-0.004,0.013-0.008,0.018-0.01
		c0.088-0.049,0.166-0.098,0.241-0.148c0.39-0.252,0.739-0.582,1.028-0.988C82.673,67.481,82.88,66.002,82.419,64.658z"/>
</g>
</svg>
