<?xml version="1.0" encoding="utf-8"?>
<!-- Generator: Adobe Illustrator 16.0.4, SVG Export Plug-In . SVG Version: 6.00 Build 0)  -->
<!DOCTYPE svg PUBLIC "-//W3C//DTD SVG 1.1//EN" "http://www.w3.org/Graphics/SVG/1.1/DTD/svg11.dtd">
<svg version="1.1" id="Layer_1" xmlns="http://www.w3.org/2000/svg" xmlns:xlink="http://www.w3.org/1999/xlink" x="0px" y="0px" viewBox="0 0 120 120" enable-background="new 0 0 120 120" xml:space="preserve">
<g>
	<path fill="#004D59" d="M79,51.501H41c-0.553,0-1-0.447-1-1v-9.5c0-0.552,0.447-1,1-1h38c0.552,0,1,0.448,1,1v9.5
		C80,51.054,79.552,51.501,79,51.501z"/>
	<path fill="#004D59" d="M79,65.751H41c-0.553,0-1-0.447-1-1v-9.5c0-0.552,0.447-1,1-1h38c0.552,0,1,0.448,1,1v9.5
		C80,65.304,79.552,65.751,79,65.751z"/>
	<path fill="#004D59" d="M79,79.999H41c-0.553,0-1-0.448-1-1v-9.5c0-0.553,0.447-1,1-1h38c0.552,0,1,0.447,1,1v9.5
		C80,79.551,79.552,79.999,79,79.999z"/>
</g>
</svg>
