<?xml version="1.0" encoding="utf-8"?>
<!-- Generator: Adobe Illustrator 16.0.4, SVG Export Plug-In . SVG Version: 6.00 Build 0)  -->
<!DOCTYPE svg PUBLIC "-//W3C//DTD SVG 1.1//EN" "http://www.w3.org/Graphics/SVG/1.1/DTD/svg11.dtd">
<svg version="1.1" id="Layer_1" xmlns="http://www.w3.org/2000/svg" xmlns:xlink="http://www.w3.org/1999/xlink" x="0px" y="0px" viewBox="0 0 120 120" enable-background="new 0 0 120 120" xml:space="preserve">
<path fill="#004D59" d="M60,40c-7.773,0-14.076,6.302-14.076,14.076c0,3.044,0.695,5.691,2.39,8.429l5.479,8.821l4.406,7.632
	c0.4,0.693,1.1,1.04,1.801,1.042c0.701-0.002,1.4-0.349,1.801-1.042l4.407-7.632l5.479-8.821c1.694-2.737,2.39-5.385,2.39-8.429
	C74.076,46.302,67.773,40,60,40z M59.841,48.1c1.211,0,1.906,0.659,1.906,1.854c0,1.193-0.695,1.889-1.906,1.889
	c-1.194,0-1.89-0.695-1.89-1.889C57.951,48.759,58.646,48.1,59.841,48.1z M62.78,62.283h-5.417v-1.692l0.748-0.106
	c0.25-0.036,0.285-0.089,0.285-0.356V55.37c0-0.196-0.053-0.321-0.231-0.375l-0.927-0.337l0.232-1.73h4.259v7.2
	c0,0.284,0.018,0.32,0.284,0.356l0.767,0.125V62.283z"/>
</svg>
