<?xml version="1.0" encoding="utf-8"?>
<!-- Generator: Adobe Illustrator 16.0.4, SVG Export Plug-In . SVG Version: 6.00 Build 0)  -->
<!DOCTYPE svg PUBLIC "-//W3C//DTD SVG 1.1//EN" "http://www.w3.org/Graphics/SVG/1.1/DTD/svg11.dtd">
<svg version="1.1" id="Layer_1" xmlns="http://www.w3.org/2000/svg" xmlns:xlink="http://www.w3.org/1999/xlink" x="0px" y="0px" viewBox="0 0 120 120" enable-background="new 0 0 120 120" xml:space="preserve">
<path fill="#004D59" d="M75.675,64.384H64.44v11.151c0,2.461-1.969,4.465-4.405,4.465c-2.51,0-4.476-1.962-4.476-4.465V64.384
	H44.406c-2.431,0-4.406-1.967-4.406-4.385c0-2.42,1.972-4.386,4.406-4.386H55.56V44.459c0-2.502,1.966-4.459,4.476-4.459
	c2.432,0,4.405,2,4.405,4.459v11.153h11.234c2.388,0,4.325,1.969,4.325,4.386C80,62.417,78.062,64.384,75.675,64.384z"/>
</svg>
