<?xml version="1.0" encoding="utf-8"?>
<!-- Generator: Adobe Illustrator 16.0.4, SVG Export Plug-In . SVG Version: 6.00 Build 0)  -->
<!DOCTYPE svg PUBLIC "-//W3C//DTD SVG 1.1//EN" "http://www.w3.org/Graphics/SVG/1.1/DTD/svg11.dtd">
<svg version="1.1" id="Layer_1" xmlns="http://www.w3.org/2000/svg" xmlns:xlink="http://www.w3.org/1999/xlink" x="0px" y="0px" viewBox="0 0 120 120" enable-background="new 0 0 120 120" xml:space="preserve">
<path fill="#004D59" d="M78.275,40.006L62.283,41.46c-0.369,0.034-0.715,0.195-0.977,0.457L40.463,62.761
	c-0.617,0.618-0.617,1.62,0,2.236l14.539,14.539c0.617,0.618,1.619,0.618,2.236,0l20.846-20.844c0.26-0.262,0.422-0.607,0.455-0.976
	l1.455-15.993C80.084,40.742,79.258,39.917,78.275,40.006z M71.914,51.86c-1.043,1.042-2.732,1.042-3.775,0
	c-1.041-1.042-1.041-2.732,0-3.774c1.043-1.043,2.732-1.043,3.775,0C72.957,49.127,72.957,50.817,71.914,51.86z"/>
</svg>
