<?xml version="1.0" encoding="utf-8"?>
<!-- Generator: Adobe Illustrator 16.0.4, SVG Export Plug-In . SVG Version: 6.00 Build 0)  -->
<!DOCTYPE svg PUBLIC "-//W3C//DTD SVG 1.1//EN" "http://www.w3.org/Graphics/SVG/1.1/DTD/svg11.dtd">
<svg version="1.1" id="Layer_1" xmlns="http://www.w3.org/2000/svg" xmlns:xlink="http://www.w3.org/1999/xlink" x="0px" y="0px" viewBox="0 0 120 120" enable-background="new 0 0 120 120" xml:space="preserve">
<path fill="#959595" d="M68.057,73.96l-7.843-7.846l-7.688,7.69c-1.696,1.694-4.454,1.699-6.154,0
	c-1.752-1.753-1.772-4.479-0.048-6.203l7.689-7.688l-7.789-7.788c-1.697-1.697-1.72-4.432-0.053-6.099
	c1.667-1.668,4.4-1.647,6.099,0.052l7.789,7.788l7.689-7.689c1.725-1.725,4.445-1.701,6.2,0.05c1.697,1.699,1.694,4.456,0,6.152
	l-7.688,7.689l7.843,7.842c1.668,1.668,1.662,4.377-0.003,6.045C72.434,75.624,69.724,75.627,68.057,73.96z"/>
</svg>
