<?xml version="1.0" encoding="utf-8"?>
<!-- Generator: Adobe Illustrator 16.0.4, SVG Export Plug-In . SVG Version: 6.00 Build 0)  -->
<!DOCTYPE svg PUBLIC "-//W3C//DTD SVG 1.1//EN" "http://www.w3.org/Graphics/SVG/1.1/DTD/svg11.dtd">
<svg version="1.1" id="Layer_1" xmlns="http://www.w3.org/2000/svg" xmlns:xlink="http://www.w3.org/1999/xlink" x="0px" y="0px" viewBox="0 0 120 120" enable-background="new 0 0 120 120" xml:space="preserve">
<path fill="#959595" d="M79.028,75.733L66.312,63.019c1.678-2.379,2.667-5.276,2.667-8.401C68.979,46.556,62.423,40,54.362,40
	c-2.646,0-5.239,0.714-7.498,2.067c-0.5,0.3-0.981,0.631-1.443,0.987l-2.622-1.961c-0.309-0.231-0.75-0.041-0.797,0.341
	l-0.653,5.489l-0.655,5.488c-0.045,0.383,0.34,0.67,0.694,0.519l5.079-2.178l5.08-2.176c0.354-0.153,0.411-0.63,0.104-0.861
	L49.225,45.9c1.55-0.916,3.324-1.401,5.138-1.401c5.579,0,10.118,4.539,10.118,10.119c0,5.578-4.539,10.117-10.118,10.117
	c-4.469,0-8.462-2.991-9.714-7.273c-0.348-1.192-1.599-1.878-2.79-1.528c-1.192,0.347-1.877,1.597-1.528,2.789
	c1.808,6.189,7.578,10.513,14.032,10.513c3.133,0,6.036-0.995,8.419-2.68l12.713,12.712C75.981,79.756,76.622,80,77.261,80
	c0.64,0,1.28-0.244,1.768-0.733C80.005,78.292,80.005,76.709,79.028,75.733z"/>
</svg>
