<?xml version="1.0" encoding="utf-8"?>
<!-- Generator: Adobe Illustrator 16.0.4, SVG Export Plug-In . SVG Version: 6.00 Build 0)  -->
<!DOCTYPE svg PUBLIC "-//W3C//DTD SVG 1.1//EN" "http://www.w3.org/Graphics/SVG/1.1/DTD/svg11.dtd">
<svg version="1.1" id="Layer_1" xmlns="http://www.w3.org/2000/svg" xmlns:xlink="http://www.w3.org/1999/xlink" x="0px" y="0px" viewBox="0 0 120 120" enable-background="new 0 0 120 120" xml:space="preserve">
<g>
	<path fill="#959595" d="M40.739,75.162l11.437-6.097c0.163-0.088,0.266-0.258,0.266-0.444V45.49c0-0.38-0.404-0.622-0.739-0.444
		l-11.436,6.098C40.103,51.23,40,51.401,40,51.586v23.132C40,75.097,40.404,75.34,40.739,75.162z"/>
	<path fill="#959595" d="M67.647,51.375v23.131c0,0.379,0.405,0.622,0.741,0.441l11.347-6.093C79.898,68.768,80,68.597,80,68.413
		v-23.13c0-0.38-0.405-0.623-0.74-0.443l-11.348,6.094C67.749,51.02,67.647,51.191,67.647,51.375z"/>
	<path fill="#959595" d="M54.212,69.065l11.185,6.086c0.336,0.184,0.743-0.06,0.743-0.441V51.583c0-0.184-0.101-0.354-0.263-0.441
		l-11.185-6.086c-0.335-0.183-0.743,0.06-0.743,0.441v23.126C53.949,68.808,54.05,68.978,54.212,69.065z"/>
</g>
</svg>
