<?xml version="1.0" encoding="utf-8"?>
<!-- Generator: Adobe Illustrator 16.0.4, SVG Export Plug-In . SVG Version: 6.00 Build 0)  -->
<!DOCTYPE svg PUBLIC "-//W3C//DTD SVG 1.1//EN" "http://www.w3.org/Graphics/SVG/1.1/DTD/svg11.dtd">
<svg version="1.1" id="Layer_1" xmlns="http://www.w3.org/2000/svg" xmlns:xlink="http://www.w3.org/1999/xlink" x="0px" y="0px" viewBox="0 0 120 120" enable-background="new 0 0 120 120" xml:space="preserve">
<path fill="#959595" d="M79.268,75.728L66.559,63.017c1.677-2.378,2.665-5.273,2.665-8.396c0-8.058-6.555-14.612-14.611-14.612
	S40,46.562,40,54.621c0,8.056,6.556,14.61,14.612,14.61c3.132,0,6.034-0.994,8.415-2.678l12.708,12.708
	c0.487,0.487,1.128,0.731,1.767,0.731c0.64,0,1.278-0.244,1.766-0.731C80.244,78.286,80.244,76.703,79.268,75.728z M44.498,54.621
	c0-5.578,4.537-10.116,10.114-10.116s10.113,4.538,10.113,10.116c0,5.576-4.536,10.114-10.113,10.114S44.498,60.197,44.498,54.621z"
	/>
</svg>
