<?xml version="1.0" encoding="utf-8"?>
<!-- Generator: Adobe Illustrator 16.0.4, SVG Export Plug-In . SVG Version: 6.00 Build 0)  -->
<!DOCTYPE svg PUBLIC "-//W3C//DTD SVG 1.1//EN" "http://www.w3.org/Graphics/SVG/1.1/DTD/svg11.dtd">
<svg version="1.1" id="Layer_1" xmlns="http://www.w3.org/2000/svg" xmlns:xlink="http://www.w3.org/1999/xlink" x="0px" y="0px" viewBox="0 0 120 120" enable-background="new 0 0 120 120" xml:space="preserve">
<g>
	<path fill="#959595" d="M64.223,43.359h-7.998c-0.428,0-0.774,0.347-0.774,0.775c0,0.428,0.347,0.774,0.774,0.774h7.998
		c0.428,0,0.775-0.347,0.775-0.774C64.998,43.706,64.65,43.359,64.223,43.359z"/>
	<path fill="#959595" d="M75.861,55.288c-0.428,0-0.774,0.347-0.774,0.774v7.998c0,0.428,0.347,0.775,0.774,0.775
		s0.774-0.348,0.774-0.775v-7.998C76.636,55.635,76.289,55.288,75.861,55.288z"/>
	<path fill="#959595" d="M44.139,65.06c0.428,0,0.774-0.347,0.774-0.775v-7.998c0-0.428-0.347-0.774-0.774-0.774
		s-0.774,0.347-0.774,0.774v7.998C43.364,64.713,43.711,65.06,44.139,65.06z"/>
	<path fill="#959595" d="M64.223,75.083h-7.998c-0.428,0-0.774,0.347-0.774,0.774s0.347,0.775,0.774,0.775h7.998
		c0.428,0,0.775-0.348,0.775-0.775S64.65,75.083,64.223,75.083z"/>
	<path fill="#959595" d="M52.137,43.201h-4.021V40.5c0-0.276-0.224-0.5-0.5-0.5h-6.953c-0.277,0-0.501,0.224-0.501,0.5v6.954
		c0,0.275,0.224,0.5,0.501,0.5h2.702v4.021c0,0.429,0.347,0.776,0.774,0.776s0.774-0.348,0.774-0.776v-4.021h2.702
		c0.276,0,0.5-0.225,0.5-0.5v-2.702h4.021c0.428,0,0.775-0.347,0.775-0.775C52.912,43.549,52.564,43.201,52.137,43.201z"/>
	<path fill="#959595" d="M67.863,44.752h3.824v2.702c0,0.275,0.225,0.5,0.5,0.5h2.899v4.021c0,0.429,0.347,0.776,0.774,0.776
		s0.774-0.348,0.774-0.776v-4.021h2.506c0.276,0,0.5-0.225,0.5-0.5V40.5c0-0.276-0.224-0.5-0.5-0.5h-6.954
		c-0.275,0-0.5,0.224-0.5,0.5v2.701h-3.824c-0.428,0-0.775,0.348-0.775,0.775C67.088,44.405,67.436,44.752,67.863,44.752z"/>
	<path fill="#959595" d="M52.137,75.248h-4.021v-2.702c0-0.276-0.224-0.501-0.5-0.501h-2.702v-4.02c0-0.429-0.347-0.775-0.774-0.775
		s-0.774,0.347-0.774,0.775v4.02h-2.702c-0.277,0-0.501,0.225-0.501,0.501V79.5c0,0.275,0.224,0.5,0.501,0.5h6.953
		c0.276,0,0.5-0.225,0.5-0.5v-2.702h4.021c0.428,0,0.775-0.347,0.775-0.775C52.912,75.596,52.564,75.248,52.137,75.248z"/>
	<path fill="#959595" d="M79.338,72.045h-2.702v-4.02c0-0.429-0.347-0.775-0.774-0.775s-0.774,0.347-0.774,0.775v4.02h-2.702
		c-0.276,0-0.5,0.225-0.5,0.501v2.702h-4.021c-0.428,0-0.775,0.348-0.775,0.774c0,0.429,0.348,0.775,0.775,0.775h4.021V79.5
		c0,0.275,0.224,0.5,0.5,0.5h6.953c0.277,0,0.501-0.225,0.501-0.5v-6.954C79.839,72.27,79.615,72.045,79.338,72.045z"/>
</g>
</svg>
