<?xml version="1.0" encoding="utf-8"?>
<!-- Generator: Adobe Illustrator 18.1.1, SVG Export Plug-In . SVG Version: 6.00 Build 0)  -->
<!DOCTYPE svg PUBLIC "-//W3C//DTD SVG 1.1//EN" "http://www.w3.org/Graphics/SVG/1.1/DTD/svg11.dtd">
<svg version="1.1" id="Layer_1" xmlns="http://www.w3.org/2000/svg" xmlns:xlink="http://www.w3.org/1999/xlink" x="0px" y="0px"
	 viewBox="0 0 300 150" enable-background="new 0 0 300 150" xml:space="preserve">
<path fill="#959595" d="M167.5,72.8c0-0.3-0.1-0.5-0.3-0.7c-0.1-0.1-0.2-0.2-0.4-0.2l-2.4-0.9c-0.3-0.1-0.7-0.3-0.9-0.6
	c-0.2-0.2-0.4-0.5-0.5-0.8l0-0.1c-0.2-0.6-0.2-1.3,0.1-2l1.1-2.3c0.2-0.4,0.1-0.8-0.2-1.1l-3.2-3.1c-0.3-0.3-0.7-0.4-1.1-0.2
	l-2.3,1.1c-0.6,0.3-1.4,0.3-2,0.1c-0.3-0.1-0.6-0.3-0.8-0.5c-0.3-0.3-0.5-0.6-0.6-0.9l-0.9-2.4c0-0.1-0.1-0.3-0.2-0.4
	c-0.2-0.2-0.4-0.3-0.7-0.3l-4.5,0c-0.4,0-0.8,0.3-0.9,0.6l-0.9,2.4c-0.2,0.6-0.7,1.2-1.4,1.5l0,0c-0.6,0.3-1.4,0.3-2-0.1l-2.3-1.1
	c-0.4-0.2-0.8-0.1-1.1,0.2l-3.1,3.2c-0.3,0.3-0.4,0.7-0.2,1.1l1.1,2.3c0.3,0.6,0.3,1.3,0.1,2l-0.1,0.1c-0.3,0.6-0.8,1.1-1.4,1.3
	l-2.4,0.9c-0.4,0.1-0.6,0.5-0.6,0.9l0,4.5c0,0.3,0.1,0.5,0.3,0.7c0.1,0.1,0.2,0.2,0.4,0.2l2.4,0.9c0.3,0.1,0.7,0.3,0.9,0.6
	c0.2,0.2,0.4,0.5,0.6,0.8l0,0.1c0.2,0.6,0.2,1.3-0.1,1.9l-1.1,2.3c-0.2,0.4-0.1,0.8,0.2,1.1l3.2,3.1c0.3,0.3,0.7,0.4,1.1,0.2
	l2.3-1.1c0.6-0.3,1.3-0.3,2-0.1l0,0c0.3,0.1,0.6,0.3,0.8,0.5c0.3,0.3,0.5,0.6,0.6,0.9l0.9,2.4c0,0.1,0.1,0.3,0.2,0.4
	c0.2,0.2,0.4,0.3,0.7,0.3l4.5,0c0.4,0,0.8-0.3,0.9-0.6l0.9-2.4c0.2-0.6,0.7-1.1,1.3-1.4l0,0l0.1,0c0.6-0.3,1.4-0.2,2,0.1l2.3,1.1
	c0.4,0.2,0.8,0.1,1.1-0.2l3.1-3.2c0.3-0.3,0.4-0.7,0.2-1.1l-1.1-2.3c-0.3-0.6-0.3-1.3-0.1-1.9l0,0l0-0.1c0.3-0.6,0.8-1.1,1.5-1.4
	l2.4-0.9c0.4-0.1,0.6-0.5,0.6-0.9L167.5,72.8z M153.6,78.6c-2,2-5.2,2-7.2,0c-2-2-2-5.2,0-7.2c2-2,5.2-2,7.2,0
	C155.6,73.4,155.6,76.6,153.6,78.6z"/>
</svg>
