<?xml version="1.0" encoding="utf-8"?>
<!-- Generator: Adobe Illustrator 16.0.4, SVG Export Plug-In . SVG Version: 6.00 Build 0)  -->
<!DOCTYPE svg PUBLIC "-//W3C//DTD SVG 1.1//EN" "http://www.w3.org/Graphics/SVG/1.1/DTD/svg11.dtd">
<svg version="1.1" id="Layer_1" xmlns="http://www.w3.org/2000/svg" xmlns:xlink="http://www.w3.org/1999/xlink" x="0px" y="0px" viewBox="0 0 120 120" enable-background="new 0 0 120 120" xml:space="preserve">
<g>
	<path fill="#959595" d="M51.067,80h17.857c2.184,0,3.951-1.768,3.951-3.951V49.836H47.122v26.213C47.122,78.232,48.89,80,51.067,80
		L51.067,80z M66.169,54.354c0-0.736,0.598-1.34,1.342-1.34c0.74,0,1.336,0.604,1.336,1.34v20.465c0,0.74-0.596,1.342-1.336,1.342
		c-0.744,0-1.342-0.602-1.342-1.342V54.354z M58.698,54.354c0-0.736,0.602-1.34,1.342-1.34c0.738,0,1.34,0.604,1.34,1.34v20.465
		c0,0.74-0.602,1.342-1.34,1.342c-0.74,0-1.342-0.602-1.342-1.342V54.354z M51.231,54.354c0-0.736,0.602-1.34,1.338-1.34
		c0.74,0,1.346,0.604,1.346,1.34v20.465c0,0.74-0.605,1.342-1.346,1.342c-0.736,0-1.338-0.602-1.338-1.342V54.354z M51.231,54.354"
		/>
	<path fill="#959595" d="M70.335,42.104h-5.438C64.767,40.923,63.772,40,62.558,40H57.44c-1.219,0-2.213,0.923-2.34,2.104h-5.434
		c-2.65,0-4.836,3.159-4.836,5.817h30.338C75.169,45.264,72.995,42.104,70.335,42.104L70.335,42.104z M70.335,42.104"/>
</g>
</svg>
