<?xml version="1.0" encoding="utf-8"?>
<!-- Generator: Adobe Illustrator 16.0.4, SVG Export Plug-In . SVG Version: 6.00 Build 0)  -->
<!DOCTYPE svg PUBLIC "-//W3C//DTD SVG 1.1//EN" "http://www.w3.org/Graphics/SVG/1.1/DTD/svg11.dtd">
<svg version="1.1" id="Layer_1" xmlns="http://www.w3.org/2000/svg" xmlns:xlink="http://www.w3.org/1999/xlink" x="0px" y="0px" viewBox="0 0 120 120" enable-background="new 0 0 120 120" xml:space="preserve">
<g>
	<path fill="#959595" d="M40,60.001C40,71.028,48.972,80,60,80s20-8.972,20-19.999C80,48.972,71.028,40,60,40S40,48.972,40,60.001z
		 M77.404,60.001c0,9.596-7.809,17.403-17.404,17.403s-17.404-7.808-17.404-17.403c0-9.598,7.809-17.405,17.404-17.405
		S77.404,50.403,77.404,60.001z"/>
	<path fill="#959595" d="M58.876,51.229l-8.18,14.168c-0.358,0.62-0.146,1.414,0.475,1.773c0.622,0.358,1.414,0.146,1.773-0.475
		l7.055-12.222l7.057,12.222c0.359,0.62,1.153,0.833,1.773,0.475c0.415-0.24,0.648-0.677,0.648-1.125
		c0-0.221-0.056-0.443-0.174-0.648l-8.18-14.168c-0.231-0.401-0.661-0.647-1.125-0.647C59.536,50.581,59.107,50.827,58.876,51.229z"
		/>
</g>
</svg>
