<?xml version="1.0" encoding="utf-8"?>
<!-- Generator: Adobe Illustrator 16.0.4, SVG Export Plug-In . SVG Version: 6.00 Build 0)  -->
<!DOCTYPE svg PUBLIC "-//W3C//DTD SVG 1.1//EN" "http://www.w3.org/Graphics/SVG/1.1/DTD/svg11.dtd">
<svg version="1.1" id="Layer_1" xmlns="http://www.w3.org/2000/svg" xmlns:xlink="http://www.w3.org/1999/xlink" x="0px" y="0px" viewBox="0 0 120 120" enable-background="new 0 0 120 120" xml:space="preserve">
<g>
	<path fill="#959595" d="M59.967,57.054c4.701,0,8.527-3.825,8.527-8.527c0-4.701-3.826-8.526-8.527-8.526
		c-4.702,0-8.527,3.825-8.527,8.526C51.44,53.229,55.265,57.054,59.967,57.054z"/>
	<path fill="#959595" d="M75.667,70.922c-1.206-3.509-3.293-6.51-6.034-8.677c-2.831-2.238-6.162-3.421-9.633-3.421
		s-6.802,1.183-9.633,3.421c-2.741,2.167-4.828,5.168-6.034,8.677c-0.664,1.931-0.365,4.057,0.798,5.687
		c0.656,0.919,1.526,1.578,2.503,1.931C49.999,79.476,54.488,80,60.003,80c6.106,0,10.894-0.598,13.017-1.746
		c0.008-0.005,0.016-0.01,0.025-0.015c0.125-0.068,0.238-0.14,0.344-0.212c0.56-0.363,1.064-0.837,1.479-1.419
		C76.032,74.979,76.331,72.853,75.667,70.922z"/>
</g>
</svg>
